<svg id="d1169537351" width="100%" xmlns="http://www.w3.org/2000/svg" style="max-width: 500px;" viewBox="0 0 500 500" role="graphics-document document" aria-roledescription="quadrantChart"><style>#d1169537351{font-family:IBM Plex Sans,system-ui,sans-serif;font-size:20px;fill:#16130e;}#d1169537351 .error-icon{fill:#f5f1e8;}#d1169537351 .error-text{fill:#0a0e17;stroke:#0a0e17;}#d1169537351 .edge-thickness-normal{stroke-width:2px;}#d1169537351 .edge-thickness-thick{stroke-width:3.5px;}#d1169537351 .edge-pattern-solid{stroke-dasharray:0;}#d1169537351 .edge-pattern-dashed{stroke-dasharray:3;}#d1169537351 .edge-pattern-dotted{stroke-dasharray:2;}#d1169537351 .marker{fill:#6a6357;stroke:#6a6357;}#d1169537351 .marker.cross{stroke:#6a6357;}#d1169537351 svg{font-family:IBM Plex Sans,system-ui,sans-serif;font-size:20px;}#d1169537351 :root{--mermaid-font-family:"trebuchet ms",verdana,arial,sans-serif;}</style><g></g><g class="main"><g class="quadrants"><g class="quadrant"><rect x="263" y="45" width="232" height="212" fill="#fbf9f4"></rect><text x="0" y="0" fill="#16130e" font-size="16" dominant-baseline="hanging" text-anchor="middle" transform="translate(379, 50) rotate(0)">Priority Now</text></g><g class="quadrant"><rect x="31" y="45" width="232" height="212" fill="#fffef9"></rect><text x="0" y="0" fill="#110e09" font-size="16" dominant-baseline="hanging" text-anchor="middle" transform="translate(147, 50) rotate(0)">Strategic Bets</text></g><g class="quadrant"><rect x="31" y="257" width="232" height="212" fill="#fffffe"></rect><text x="0" y="0" fill="#0c0904" font-size="16" dominant-baseline="hanging" text-anchor="middle" transform="translate(147, 262) rotate(0)">Kill or Defer</text></g><g class="quadrant"><rect x="263" y="257" width="232" height="212" fill="#ffffff"></rect><text x="0" y="0" fill="#070400" font-size="16" dominant-baseline="hanging" text-anchor="middle" transform="translate(379, 262) rotate(0)">Quick Wins</text></g></g><g class="border"><line x1="30" y1="45" x2="496" y2="45" style="stroke: rgb(122, 92, 30); stroke-width: 2;"></line><line x1="495" y1="46" x2="495" y2="468" style="stroke: rgb(122, 92, 30); stroke-width: 2;"></line><line x1="30" y1="469" x2="496" y2="469" style="stroke: rgb(122, 92, 30); stroke-width: 2;"></line><line x1="31" y1="46" x2="31" y2="468" style="stroke: rgb(122, 92, 30); stroke-width: 2;"></line><line x1="263" y1="46" x2="263" y2="468" style="stroke: rgb(122, 92, 30); stroke-width: 1;"></line><line x1="32" y1="257" x2="494" y2="257" style="stroke: rgb(122, 92, 30); stroke-width: 1;"></line></g><g class="data-points"><g class="data-point"><circle cx="332.6" cy="172.20000000000002" r="5" fill="hsl(42.8571428571, 46.6666666667%, NaN%)"></circle><text x="0" y="0" fill="#16130e" font-size="12" dominant-baseline="hanging" text-anchor="middle" transform="translate(332.6, 177.20000000000002) rotate(0)">Customer Churn Prediction</text></g><g class="data-point"><circle cx="448.6" cy="384.20000000000005" r="5" fill="hsl(42.8571428571, 46.6666666667%, NaN%)"></circle><text x="0" y="0" fill="#16130e" font-size="12" dominant-baseline="hanging" text-anchor="middle" transform="translate(448.6, 389.20000000000005) rotate(0)">IT Ticket Triage</text></g><g class="data-point"><circle cx="239.8" cy="129.79999999999998" r="5" fill="hsl(42.8571428571, 46.6666666667%, NaN%)"></circle><text x="0" y="0" fill="#16130e" font-size="12" dominant-baseline="hanging" text-anchor="middle" transform="translate(239.8, 134.79999999999998) rotate(0)">Supply Chain Routing</text></g><g class="data-point"><circle cx="379" cy="320.6" r="5" fill="hsl(42.8571428571, 46.6666666667%, NaN%)"></circle><text x="0" y="0" fill="#16130e" font-size="12" dominant-baseline="hanging" text-anchor="middle" transform="translate(379, 325.6) rotate(0)">Contract Review</text></g><g class="data-point"><circle cx="425.4" cy="363" r="5" fill="hsl(42.8571428571, 46.6666666667%, NaN%)"></circle><text x="0" y="0" fill="#16130e" font-size="12" dominant-baseline="hanging" text-anchor="middle" transform="translate(425.4, 368) rotate(0)">HR Chatbot</text></g><g class="data-point"><circle cx="286.2" cy="87.39999999999999" r="5" fill="hsl(42.8571428571, 46.6666666667%, NaN%)"></circle><text x="0" y="0" fill="#16130e" font-size="12" dominant-baseline="hanging" text-anchor="middle" transform="translate(286.2, 92.39999999999999) rotate(0)">Pricing Optimization</text></g><g class="data-point"><circle cx="402.2" cy="151" r="5" fill="hsl(42.8571428571, 46.6666666667%, NaN%)"></circle><text x="0" y="0" fill="#16130e" font-size="12" dominant-baseline="hanging" text-anchor="middle" transform="translate(402.2, 156) rotate(0)">Sales Copilot</text></g><g class="data-point"><circle cx="355.8" cy="108.60000000000001" r="5" fill="hsl(42.8571428571, 46.6666666667%, NaN%)"></circle><text x="0" y="0" fill="#16130e" font-size="12" dominant-baseline="hanging" text-anchor="middle" transform="translate(355.8, 113.60000000000001) rotate(0)">Demand Forecasting</text></g></g><g class="labels"><g class="label"><text x="0" y="0" fill="#16130e" font-size="16" dominant-baseline="hanging" text-anchor="middle" transform="translate(147, 479) rotate(0)">Low Feasibility</text></g><g class="label"><text x="0" y="0" fill="#16130e" font-size="16" dominant-baseline="hanging" text-anchor="middle" transform="translate(379, 479) rotate(0)">High Feasibility</text></g><g class="label"><text x="0" y="0" fill="#16130e" font-size="16" dominant-baseline="hanging" text-anchor="middle" transform="translate(5, 363) rotate(-90)">Low Business Value</text></g><g class="label"><text x="0" y="0" fill="#16130e" font-size="16" dominant-baseline="hanging" text-anchor="middle" transform="translate(5, 151) rotate(-90)">High Business Value</text></g></g><g class="title"><text x="0" y="0" fill="#16130e" font-size="20" dominant-baseline="hanging" text-anchor="middle" transform="translate(250, 10) rotate(0)">AI Use Case Prioritization Matrix</text></g></g></svg>