<svg id="d312604801" width="100%" xmlns="http://www.w3.org/2000/svg" style="max-width: 1101.96875px;" viewBox="-8 -8 1101.96875 592.703125" role="graphics-document document" aria-roledescription="flowchart-v2"><style>#d312604801{font-family:IBM Plex Sans,system-ui,sans-serif;font-size:20px;fill:#16130e;}#d312604801 .error-icon{fill:#f5f1e8;}#d312604801 .error-text{fill:#0a0e17;stroke:#0a0e17;}#d312604801 .edge-thickness-normal{stroke-width:2px;}#d312604801 .edge-thickness-thick{stroke-width:3.5px;}#d312604801 .edge-pattern-solid{stroke-dasharray:0;}#d312604801 .edge-pattern-dashed{stroke-dasharray:3;}#d312604801 .edge-pattern-dotted{stroke-dasharray:2;}#d312604801 .marker{fill:#6a6357;stroke:#6a6357;}#d312604801 .marker.cross{stroke:#6a6357;}#d312604801 svg{font-family:IBM Plex Sans,system-ui,sans-serif;font-size:20px;}#d312604801 .label{font-family:IBM Plex Sans,system-ui,sans-serif;color:#16130e;}#d312604801 .cluster-label text{fill:#16130e;}#d312604801 .cluster-label span,#d312604801 p{color:#16130e;}#d312604801 .label text,#d312604801 span,#d312604801 p{fill:#16130e;color:#16130e;}#d312604801 .node rect,#d312604801 .node circle,#d312604801 .node ellipse,#d312604801 .node polygon,#d312604801 .node path{fill:#fbf9f4;stroke:#7a5c1e;stroke-width:1px;}#d312604801 .flowchart-label text{text-anchor:middle;}#d312604801 .node .katex path{fill:#000;stroke:#000;stroke-width:1px;}#d312604801 .node .label{text-align:center;}#d312604801 .node.clickable{cursor:pointer;}#d312604801 .arrowheadPath{fill:#0a0e17;}#d312604801 .edgePath .path{stroke:#6a6357;stroke-width:2.0px;}#d312604801 .flowchart-link{stroke:#6a6357;fill:none;}#d312604801 .edgeLabel{background-color:#f5f1e8;text-align:center;}#d312604801 .edgeLabel rect{opacity:0.5;background-color:#f5f1e8;fill:#f5f1e8;}#d312604801 .labelBkg{background-color:rgba(245, 241, 232, 0.5);}#d312604801 .cluster rect{fill:#ece6d8;stroke:#d9d2c3;stroke-width:1px;}#d312604801 .cluster text{fill:#16130e;}#d312604801 .cluster span,#d312604801 p{color:#16130e;}#d312604801 div.mermaidTooltip{position:absolute;text-align:center;max-width:200px;padding:2px;font-family:IBM Plex Sans,system-ui,sans-serif;font-size:12px;background:#f5f1e8;border:1px solid hsl(41.5384615385, 0%, 83.5294117647%);border-radius:2px;pointer-events:none;z-index:100;}#d312604801 .flowchartTitleText{text-anchor:middle;font-size:18px;fill:#16130e;}#d312604801 :root{--mermaid-font-family:"trebuchet ms",verdana,arial,sans-serif;}</style><g><marker id="d312604801_flowchart-pointEnd" class="marker flowchart" viewBox="0 0 10 10" refX="6" refY="5" markerUnits="userSpaceOnUse" markerWidth="12" markerHeight="12" orient="auto"><path d="M 0 0 L 10 5 L 0 10 z" class="arrowMarkerPath" style="stroke-width: 1; stroke-dasharray: 1, 0;"></path></marker><marker id="d312604801_flowchart-pointStart" class="marker flowchart" viewBox="0 0 10 10" refX="4.5" refY="5" markerUnits="userSpaceOnUse" markerWidth="12" markerHeight="12" orient="auto"><path d="M 0 5 L 10 10 L 10 0 z" class="arrowMarkerPath" style="stroke-width: 1; stroke-dasharray: 1, 0;"></path></marker><marker id="d312604801_flowchart-circleEnd" class="marker flowchart" viewBox="0 0 10 10" refX="11" refY="5" markerUnits="userSpaceOnUse" markerWidth="11" markerHeight="11" orient="auto"><circle cx="5" cy="5" r="5" class="arrowMarkerPath" style="stroke-width: 1; stroke-dasharray: 1, 0;"></circle></marker><marker id="d312604801_flowchart-circleStart" class="marker flowchart" viewBox="0 0 10 10" refX="-1" refY="5" markerUnits="userSpaceOnUse" markerWidth="11" markerHeight="11" orient="auto"><circle cx="5" cy="5" r="5" class="arrowMarkerPath" style="stroke-width: 1; stroke-dasharray: 1, 0;"></circle></marker><marker id="d312604801_flowchart-crossEnd" class="marker cross flowchart" viewBox="0 0 11 11" refX="12" refY="5.2" markerUnits="userSpaceOnUse" markerWidth="11" markerHeight="11" orient="auto"><path d="M 1,1 l 9,9 M 10,1 l -9,9" class="arrowMarkerPath" style="stroke-width: 2; stroke-dasharray: 1, 0;"></path></marker><marker id="d312604801_flowchart-crossStart" class="marker cross flowchart" viewBox="0 0 11 11" refX="-1" refY="5.2" markerUnits="userSpaceOnUse" markerWidth="11" markerHeight="11" orient="auto"><path d="M 1,1 l 9,9 M 10,1 l -9,9" class="arrowMarkerPath" style="stroke-width: 2; stroke-dasharray: 1, 0;"></path></marker><g class="root"><g class="clusters"></g><g class="edgePaths"><path d="M550.727,38L550.727,42.167C550.727,46.333,550.727,54.667,550.793,62.2C550.859,69.734,550.991,76.467,551.057,79.834L551.123,83.201" id="L-A-B-0" class="edge-thickness-normal edge-pattern-solid flowchart-link LS-A LE-B" style="fill:none;" marker-end="url(#d312604801_flowchart-pointEnd)"></path><path d="M474.744,213.721L415.561,232.468C356.379,251.215,238.014,288.709,178.831,312.656C119.648,336.603,119.648,347.003,119.648,352.203L119.648,357.403" id="L-B-C-0" class="edge-thickness-normal edge-pattern-solid flowchart-link LS-B LE-C" style="fill:none;" marker-end="url(#d312604801_flowchart-pointEnd)"></path><path d="M500.499,239.475L485.702,253.93C470.905,268.384,441.312,297.294,426.515,316.948C411.719,336.603,411.719,347.003,411.719,352.203L411.719,357.403" id="L-B-D-0" class="edge-thickness-normal edge-pattern-solid flowchart-link LS-B LE-D" style="fill:none;" marker-end="url(#d312604801_flowchart-pointEnd)"></path><path d="M601.955,239.475L616.585,253.93C631.214,268.384,660.474,297.294,675.104,316.948C689.734,336.603,689.734,347.003,689.734,352.203L689.734,357.403" id="L-B-E-0" class="edge-thickness-normal edge-pattern-solid flowchart-link LS-B LE-E" style="fill:none;" marker-end="url(#d312604801_flowchart-pointEnd)"></path><path d="M626.996,214.434L683.438,233.062C739.88,251.69,852.764,288.947,909.206,312.775C965.648,336.603,965.648,347.003,965.648,352.203L965.648,357.403" id="L-B-F-0" class="edge-thickness-normal edge-pattern-solid flowchart-link LS-B LE-F" style="fill:none;" marker-end="url(#d312604801_flowchart-pointEnd)"></path><path d="M119.648,400.703L119.648,404.87C119.648,409.036,119.648,417.37,132.632,425.448C145.615,433.527,171.582,441.35,184.565,445.262L197.548,449.174" id="L-C-G-0" class="edge-thickness-normal edge-pattern-solid flowchart-link LS-C LE-G" style="fill:none;" marker-end="url(#d312604801_flowchart-pointEnd)"></path><path d="M411.719,400.703L411.719,404.87C411.719,409.036,411.719,417.37,398.735,425.448C385.752,433.527,359.786,441.35,346.802,445.262L333.819,449.174" id="L-D-G-0" class="edge-thickness-normal edge-pattern-solid flowchart-link LS-D LE-G" style="fill:none;" marker-end="url(#d312604801_flowchart-pointEnd)"></path><path d="M689.734,400.703L689.734,404.87C689.734,409.036,689.734,417.37,701.957,425.435C714.179,433.5,738.625,441.296,750.847,445.194L763.07,449.093" id="L-E-H-0" class="edge-thickness-normal edge-pattern-solid flowchart-link LS-E LE-H" style="fill:none;" marker-end="url(#d312604801_flowchart-pointEnd)"></path><path d="M965.648,400.703L965.648,404.87C965.648,409.036,965.648,417.37,953.426,425.435C941.203,433.5,916.758,441.296,904.536,445.194L892.313,449.093" id="L-F-H-0" class="edge-thickness-normal edge-pattern-solid flowchart-link LS-F LE-H" style="fill:none;" marker-end="url(#d312604801_flowchart-pointEnd)"></path><path d="M265.684,488.703L265.684,492.87C265.684,497.036,265.684,505.37,294.501,514.114C323.318,522.859,380.952,532.015,409.769,536.593L438.586,541.171" id="L-G-I-0" class="edge-thickness-normal edge-pattern-solid flowchart-link LS-G LE-I" style="fill:none;" marker-end="url(#d312604801_flowchart-pointEnd)"></path><path d="M827.691,488.703L827.691,492.87C827.691,497.036,827.691,505.37,797.529,514.192C767.366,523.015,707.04,532.327,676.877,536.983L646.715,541.639" id="L-H-I-0" class="edge-thickness-normal edge-pattern-solid flowchart-link LS-H LE-I" style="fill:none;" marker-end="url(#d312604801_flowchart-pointEnd)"></path></g><g class="edgeLabels"><g class="edgeLabel"><g class="label" transform="translate(0, 0)"><rect rx="0" ry="0" width="0" height="0"></rect><text style=""><tspan xml:space="preserve" dy="1em" x="0" class="row"></tspan></text></g></g><g class="edgeLabel" transform="translate(119.6484375, 326.203125)"><g class="label" transform="translate(-63.140625, -11.5)"><rect rx="0" ry="0" width="126.28125" height="23"></rect><text style=""><tspan xml:space="preserve" dy="1em" x="0" class="row">Organizational</tspan></text></g></g><g class="edgeLabel" transform="translate(411.71875, 326.203125)"><g class="label" transform="translate(-39.5078125, -11.5)"><rect rx="0" ry="0" width="79.015625" height="23"></rect><text style=""><tspan xml:space="preserve" dy="1em" x="0" class="row">Incentive</tspan></text></g></g><g class="edgeLabel" transform="translate(689.734375, 326.203125)"><g class="label" transform="translate(-20.5234375, -11.5)"><rect rx="0" ry="0" width="41.046875" height="23"></rect><text style=""><tspan xml:space="preserve" dy="1em" x="0" class="row">Data</tspan></text></g></g><g class="edgeLabel" transform="translate(965.6484375, 326.203125)"><g class="label" transform="translate(-35.03125, -11.5)"><rect rx="0" ry="0" width="70.0625" height="23"></rect><text style=""><tspan xml:space="preserve" dy="1em" x="0" class="row">Process</tspan></text></g></g><g class="edgeLabel"><g class="label" transform="translate(0, 0)"><rect rx="0" ry="0" width="0" height="0"></rect><text style=""><tspan xml:space="preserve" dy="1em" x="0" class="row"></tspan></text></g></g><g class="edgeLabel"><g class="label" transform="translate(0, 0)"><rect rx="0" ry="0" width="0" height="0"></rect><text style=""><tspan xml:space="preserve" dy="1em" x="0" class="row"></tspan></text></g></g><g class="edgeLabel"><g class="label" transform="translate(0, 0)"><rect rx="0" ry="0" width="0" height="0"></rect><text style=""><tspan xml:space="preserve" dy="1em" x="0" class="row"></tspan></text></g></g><g class="edgeLabel"><g class="label" transform="translate(0, 0)"><rect rx="0" ry="0" width="0" height="0"></rect><text style=""><tspan xml:space="preserve" dy="1em" x="0" class="row"></tspan></text></g></g><g class="edgeLabel"><g class="label" transform="translate(0, 0)"><rect rx="0" ry="0" width="0" height="0"></rect><text style=""><tspan xml:space="preserve" dy="1em" x="0" class="row"></tspan></text></g></g><g class="edgeLabel"><g class="label" transform="translate(0, 0)"><rect rx="0" ry="0" width="0" height="0"></rect><text style=""><tspan xml:space="preserve" dy="1em" x="0" class="row"></tspan></text></g></g></g><g class="nodes"><g class="node default default flowchart-label" id="flowchart-A-389" data-node="true" data-id="A" transform="translate(550.7265625, 19)"><rect class="basic label-container" style="" rx="0" ry="0" x="-63.6171875" y="-19" width="127.234375" height="38"></rect><g class="label" style="" transform="translate(0, -11.5)"><rect></rect><text style=""><tspan xml:space="preserve" dy="1em" x="0" class="row">Failure Mode</tspan></text></g></g><g class="node default default flowchart-label" id="flowchart-B-390" data-node="true" data-id="B" transform="translate(550.7265625, 188.8515625)"><polygon points="100.8515625,0 201.703125,-100.8515625 100.8515625,-201.703125 0,-100.8515625" class="label-container" transform="translate(-100.8515625,100.8515625)" style=""></polygon><g class="label" style="" transform="translate(0, -11.5)"><rect></rect><text style=""><tspan xml:space="preserve" dy="1em" x="0" class="row">Root Cause Type</tspan></text></g></g><g class="node default default flowchart-label" id="flowchart-C-392" data-node="true" data-id="C" transform="translate(119.6484375, 381.703125)"><rect class="basic label-container" style="" rx="0" ry="0" x="-119.6484375" y="-19" width="239.296875" height="38"></rect><g class="label" style="" transform="translate(0, -11.5)"><rect></rect><text style=""><tspan xml:space="preserve" dy="1em" x="0" class="row">Operating Model Problem</tspan></text></g></g><g class="node default default flowchart-label" id="flowchart-D-394" data-node="true" data-id="D" transform="translate(411.71875, 381.703125)"><rect class="basic label-container" style="" rx="0" ry="0" x="-122.421875" y="-19" width="244.84375" height="38"></rect><g class="label" style="" transform="translate(0, -11.5)"><rect></rect><text style=""><tspan xml:space="preserve" dy="1em" x="0" class="row">Reward Structure Problem</tspan></text></g></g><g class="node default default flowchart-label" id="flowchart-E-396" data-node="true" data-id="E" transform="translate(689.734375, 381.703125)"><rect class="basic label-container" style="" rx="0" ry="0" x="-105.59375" y="-19" width="211.1875" height="38"></rect><g class="label" style="" transform="translate(0, -11.5)"><rect></rect><text style=""><tspan xml:space="preserve" dy="1em" x="0" class="row">Infrastructure Problem</tspan></text></g></g><g class="node default default flowchart-label" id="flowchart-F-398" data-node="true" data-id="F" transform="translate(965.6484375, 381.703125)"><rect class="basic label-container" style="" rx="0" ry="0" x="-120.3203125" y="-19" width="240.640625" height="38"></rect><g class="label" style="" transform="translate(0, -11.5)"><rect></rect><text style=""><tspan xml:space="preserve" dy="1em" x="0" class="row">Workflow Design Problem</tspan></text></g></g><g class="node default default flowchart-label" id="flowchart-G-400" data-node="true" data-id="G" transform="translate(265.68359375, 469.703125)"><rect class="basic label-container" style="" rx="0" ry="0" x="-131.0390625" y="-19" width="262.078125" height="38"></rect><g class="label" style="" transform="translate(0, -11.5)"><rect></rect><text style=""><tspan xml:space="preserve" dy="1em" x="0" class="row">Requires Executive Mandate</tspan></text></g></g><g class="node default default flowchart-label" id="flowchart-H-404" data-node="true" data-id="H" transform="translate(827.69140625, 469.703125)"><rect class="basic label-container" style="" rx="0" ry="0" x="-135.5078125" y="-19" width="271.015625" height="38"></rect><g class="label" style="" transform="translate(0, -11.5)"><rect></rect><text style=""><tspan xml:space="preserve" dy="1em" x="0" class="row">Requires Portfolio Investment</tspan></text></g></g><g class="node default default flowchart-label" id="flowchart-I-408" data-node="true" data-id="I" transform="translate(542.6484375, 557.703125)"><rect class="basic label-container" style="" rx="0" ry="0" x="-98.828125" y="-19" width="197.65625" height="38"></rect><g class="label" style="" transform="translate(0, -11.5)"><rect></rect><text style=""><tspan xml:space="preserve" dy="1em" x="0" class="row">Not a Technology Fix</tspan></text></g></g></g></g></g></svg>