<svg id="d611287334" width="100%" xmlns="http://www.w3.org/2000/svg" style="max-width: 846.04296875px;" viewBox="-8 -8 846.04296875 1919.65625" role="graphics-document document" aria-roledescription="flowchart-v2"><style>#d611287334{font-family:IBM Plex Sans,system-ui,sans-serif;font-size:20px;fill:#16130e;}#d611287334 .error-icon{fill:#f5f1e8;}#d611287334 .error-text{fill:#0a0e17;stroke:#0a0e17;}#d611287334 .edge-thickness-normal{stroke-width:2px;}#d611287334 .edge-thickness-thick{stroke-width:3.5px;}#d611287334 .edge-pattern-solid{stroke-dasharray:0;}#d611287334 .edge-pattern-dashed{stroke-dasharray:3;}#d611287334 .edge-pattern-dotted{stroke-dasharray:2;}#d611287334 .marker{fill:#6a6357;stroke:#6a6357;}#d611287334 .marker.cross{stroke:#6a6357;}#d611287334 svg{font-family:IBM Plex Sans,system-ui,sans-serif;font-size:20px;}#d611287334 .label{font-family:IBM Plex Sans,system-ui,sans-serif;color:#16130e;}#d611287334 .cluster-label text{fill:#16130e;}#d611287334 .cluster-label span,#d611287334 p{color:#16130e;}#d611287334 .label text,#d611287334 span,#d611287334 p{fill:#16130e;color:#16130e;}#d611287334 .node rect,#d611287334 .node circle,#d611287334 .node ellipse,#d611287334 .node polygon,#d611287334 .node path{fill:#fbf9f4;stroke:#7a5c1e;stroke-width:1px;}#d611287334 .flowchart-label text{text-anchor:middle;}#d611287334 .node .katex path{fill:#000;stroke:#000;stroke-width:1px;}#d611287334 .node .label{text-align:center;}#d611287334 .node.clickable{cursor:pointer;}#d611287334 .arrowheadPath{fill:#0a0e17;}#d611287334 .edgePath .path{stroke:#6a6357;stroke-width:2.0px;}#d611287334 .flowchart-link{stroke:#6a6357;fill:none;}#d611287334 .edgeLabel{background-color:#f5f1e8;text-align:center;}#d611287334 .edgeLabel rect{opacity:0.5;background-color:#f5f1e8;fill:#f5f1e8;}#d611287334 .labelBkg{background-color:rgba(245, 241, 232, 0.5);}#d611287334 .cluster rect{fill:#ece6d8;stroke:#d9d2c3;stroke-width:1px;}#d611287334 .cluster text{fill:#16130e;}#d611287334 .cluster span,#d611287334 p{color:#16130e;}#d611287334 div.mermaidTooltip{position:absolute;text-align:center;max-width:200px;padding:2px;font-family:IBM Plex Sans,system-ui,sans-serif;font-size:12px;background:#f5f1e8;border:1px solid hsl(41.5384615385, 0%, 83.5294117647%);border-radius:2px;pointer-events:none;z-index:100;}#d611287334 .flowchartTitleText{text-anchor:middle;font-size:18px;fill:#16130e;}#d611287334 :root{--mermaid-font-family:"trebuchet ms",verdana,arial,sans-serif;}</style><g><marker id="d611287334_flowchart-pointEnd" class="marker flowchart" viewBox="0 0 10 10" refX="6" refY="5" markerUnits="userSpaceOnUse" markerWidth="12" markerHeight="12" orient="auto"><path d="M 0 0 L 10 5 L 0 10 z" class="arrowMarkerPath" style="stroke-width: 1; stroke-dasharray: 1, 0;"></path></marker><marker id="d611287334_flowchart-pointStart" class="marker flowchart" viewBox="0 0 10 10" refX="4.5" refY="5" markerUnits="userSpaceOnUse" markerWidth="12" markerHeight="12" orient="auto"><path d="M 0 5 L 10 10 L 10 0 z" class="arrowMarkerPath" style="stroke-width: 1; stroke-dasharray: 1, 0;"></path></marker><marker id="d611287334_flowchart-circleEnd" class="marker flowchart" viewBox="0 0 10 10" refX="11" refY="5" markerUnits="userSpaceOnUse" markerWidth="11" markerHeight="11" orient="auto"><circle cx="5" cy="5" r="5" class="arrowMarkerPath" style="stroke-width: 1; stroke-dasharray: 1, 0;"></circle></marker><marker id="d611287334_flowchart-circleStart" class="marker flowchart" viewBox="0 0 10 10" refX="-1" refY="5" markerUnits="userSpaceOnUse" markerWidth="11" markerHeight="11" orient="auto"><circle cx="5" cy="5" r="5" class="arrowMarkerPath" style="stroke-width: 1; stroke-dasharray: 1, 0;"></circle></marker><marker id="d611287334_flowchart-crossEnd" class="marker cross flowchart" viewBox="0 0 11 11" refX="12" refY="5.2" markerUnits="userSpaceOnUse" markerWidth="11" markerHeight="11" orient="auto"><path d="M 1,1 l 9,9 M 10,1 l -9,9" class="arrowMarkerPath" style="stroke-width: 2; stroke-dasharray: 1, 0;"></path></marker><marker id="d611287334_flowchart-crossStart" class="marker cross flowchart" viewBox="0 0 11 11" refX="-1" refY="5.2" markerUnits="userSpaceOnUse" markerWidth="11" markerHeight="11" orient="auto"><path d="M 1,1 l 9,9 M 10,1 l -9,9" class="arrowMarkerPath" style="stroke-width: 2; stroke-dasharray: 1, 0;"></path></marker><g class="root"><g class="clusters"></g><g class="edgePaths"><path d="M265.246,38L265.246,42.167C265.246,46.333,265.246,54.667,265.312,62.2C265.378,69.734,265.51,76.467,265.576,79.834L265.642,83.201" id="L-A-B-0" class="edge-thickness-normal edge-pattern-solid flowchart-link LS-A LE-B" style="fill:none;" marker-end="url(#d611287334_flowchart-pointEnd)"></path><path d="M212.759,269.529L200.332,284.36C187.905,299.191,163.05,328.853,150.623,364.134C138.195,399.416,138.195,440.316,138.195,460.766L138.195,481.216" id="L-B-C-0" class="edge-thickness-normal edge-pattern-solid flowchart-link LS-B LE-C" style="fill:none;" marker-end="url(#d611287334_flowchart-pointEnd)"></path><path d="M318.733,269.529L330.994,284.36C343.254,299.191,367.776,328.853,380.108,348.968C392.44,369.082,392.582,379.649,392.654,384.933L392.725,390.216" id="L-B-D-0" class="edge-thickness-normal edge-pattern-solid flowchart-link LS-B LE-D" style="fill:none;" marker-end="url(#d611287334_flowchart-pointEnd)"></path><path d="M311.606,575.325L279.225,594.857C246.844,614.388,182.082,653.452,149.701,694.332C117.32,735.213,117.32,777.909,117.32,799.258L117.32,820.606" id="L-D-E-0" class="edge-thickness-normal edge-pattern-solid flowchart-link LS-D LE-E" style="fill:none;" marker-end="url(#d611287334_flowchart-pointEnd)"></path><path d="M117.32,863.906L117.32,886.138C117.32,908.37,117.32,952.833,117.398,986.276C117.475,1019.718,117.629,1042.139,117.707,1053.349L117.784,1064.56" id="L-E-F-0" class="edge-thickness-normal edge-pattern-solid flowchart-link LS-E LE-F" style="fill:none;" marker-end="url(#d611287334_flowchart-pointEnd)"></path><path d="M104.691,1286.589L102.776,1300.705C100.862,1314.82,97.032,1343.051,95.118,1364.033C93.203,1385.015,93.203,1398.748,93.203,1405.615L93.203,1412.481" id="L-F-G-0" class="edge-thickness-normal edge-pattern-solid flowchart-link LS-F LE-G" style="fill:none;" marker-end="url(#d611287334_flowchart-pointEnd)"></path><path d="M160.612,1256.927L171.884,1275.986C183.155,1295.045,205.699,1333.163,233.175,1359.606C260.651,1386.049,293.061,1400.816,309.265,1408.2L325.47,1415.584" id="L-F-H-0" class="edge-thickness-normal edge-pattern-solid flowchart-link LS-F LE-H" style="fill:none;" marker-end="url(#d611287334_flowchart-pointEnd)"></path><path d="M452.51,596.802L465.954,612.755C479.397,628.707,506.285,660.611,519.8,681.847C533.315,703.082,533.457,713.649,533.529,718.933L533.6,724.216" id="L-D-I-0" class="edge-thickness-normal edge-pattern-solid flowchart-link LS-D LE-I" style="fill:none;" marker-end="url(#d611287334_flowchart-pointEnd)"></path><path d="M476.893,904.518L461.876,919.981C446.859,935.444,416.826,966.37,401.81,1007.282C386.793,1048.194,386.793,1099.092,386.793,1124.54L386.793,1149.989" id="L-I-J-0" class="edge-thickness-normal edge-pattern-solid flowchart-link LS-I LE-J" style="fill:none;" marker-end="url(#d611287334_flowchart-pointEnd)"></path><path d="M590.451,904.518L605.301,919.981C620.151,935.444,649.851,966.37,664.772,987.117C679.694,1007.864,679.836,1018.431,679.908,1023.714L679.979,1028.997" id="L-I-K-0" class="edge-thickness-normal edge-pattern-solid flowchart-link LS-I LE-K" style="fill:none;" marker-end="url(#d611287334_flowchart-pointEnd)"></path><path d="M697.243,1318.089L698.314,1326.954C699.385,1335.82,701.526,1353.55,702.597,1367.616C703.668,1381.681,703.668,1392.081,703.668,1397.281L703.668,1402.481" id="L-K-L-0" class="edge-thickness-normal edge-pattern-solid flowchart-link LS-K LE-L" style="fill:none;" marker-end="url(#d611287334_flowchart-pointEnd)"></path><path d="M624.541,1279.772L615.496,1295.023C606.451,1310.275,588.36,1340.778,562.027,1363.432C535.693,1386.086,501.116,1400.891,483.828,1408.293L466.54,1415.695" id="L-K-H-0" class="edge-thickness-normal edge-pattern-solid flowchart-link LS-K LE-H" style="fill:none;" marker-end="url(#d611287334_flowchart-pointEnd)"></path><path d="M393.938,1475.781L393.938,1481.615C393.938,1487.448,393.938,1499.115,394.004,1508.315C394.07,1517.515,394.202,1524.249,394.268,1527.615L394.334,1530.982" id="L-H-M-0" class="edge-thickness-normal edge-pattern-solid flowchart-link LS-H LE-M" style="fill:none;" marker-end="url(#d611287334_flowchart-pointEnd)"></path><path d="M348.642,1707.361L338.532,1720.994C328.422,1734.626,308.201,1761.891,298.091,1780.724C287.98,1799.556,287.98,1809.956,287.98,1815.156L287.98,1820.356" id="L-M-N-0" class="edge-thickness-normal edge-pattern-solid flowchart-link LS-M LE-N" style="fill:none;" marker-end="url(#d611287334_flowchart-pointEnd)"></path><path d="M440.233,1707.361L450.176,1720.994C460.12,1734.626,480.007,1761.891,489.951,1782.39C499.895,1802.89,499.895,1816.623,499.895,1823.49L499.895,1830.356" id="L-M-O-0" class="edge-thickness-normal edge-pattern-solid flowchart-link LS-M LE-O" style="fill:none;" marker-end="url(#d611287334_flowchart-pointEnd)"></path></g><g class="edgeLabels"><g class="edgeLabel"><g class="label" transform="translate(0, 0)"><rect rx="0" ry="0" width="0" height="0"></rect><text style=""><tspan xml:space="preserve" dy="1em" x="0" class="row"></tspan></text></g></g><g class="edgeLabel" transform="translate(138.1953125, 358.515625)"><g class="label" transform="translate(-12.640625, -11.5)"><rect rx="0" ry="0" width="25.266036987304688" height="23.000375747680664"></rect><text style=""><tspan xml:space="preserve" dy="1em" x="0" class="row">No</tspan></text></g></g><g class="edgeLabel" transform="translate(392.296875, 358.515625)"><g class="label" transform="translate(-15.59375, -11.5)"><rect rx="0" ry="0" width="31.17238426208496" height="23.000375747680664"></rect><text style=""><tspan xml:space="preserve" dy="1em" x="0" class="row">Yes</tspan></text></g></g><g class="edgeLabel" transform="translate(117.3203125, 692.515625)"><g class="label" transform="translate(-15.59375, -11.5)"><rect rx="0" ry="0" width="31.17238426208496" height="23.000375747680664"></rect><text style=""><tspan xml:space="preserve" dy="1em" x="0" class="row">Yes</tspan></text></g></g><g class="edgeLabel"><g class="label" transform="translate(0, 0)"><rect rx="0" ry="0" width="0" height="0"></rect><text style=""><tspan xml:space="preserve" dy="1em" x="0" class="row"></tspan></text></g></g><g class="edgeLabel" transform="translate(93.203125, 1371.28125)"><g class="label" transform="translate(-12.640625, -11.5)"><rect rx="0" ry="0" width="25.266036987304688" height="23.000375747680664"></rect><text style=""><tspan xml:space="preserve" dy="1em" x="0" class="row">No</tspan></text></g></g><g class="edgeLabel" transform="translate(228.2421875, 1371.28125)"><g class="label" transform="translate(-15.59375, -11.5)"><rect rx="0" ry="0" width="31.17238426208496" height="23.000375747680664"></rect><text style=""><tspan xml:space="preserve" dy="1em" x="0" class="row">Yes</tspan></text></g></g><g class="edgeLabel" transform="translate(533.171875, 692.515625)"><g class="label" transform="translate(-12.640625, -11.5)"><rect rx="0" ry="0" width="25.266036987304688" height="23.000375747680664"></rect><text style=""><tspan xml:space="preserve" dy="1em" x="0" class="row">No</tspan></text></g></g><g class="edgeLabel" transform="translate(386.79296875, 997.296875)"><g class="label" transform="translate(-12.640625, -11.5)"><rect rx="0" ry="0" width="25.266036987304688" height="23.000375747680664"></rect><text style=""><tspan xml:space="preserve" dy="1em" x="0" class="row">No</tspan></text></g></g><g class="edgeLabel" transform="translate(679.55078125, 997.296875)"><g class="label" transform="translate(-15.59375, -11.5)"><rect rx="0" ry="0" width="31.17238426208496" height="23.000375747680664"></rect><text style=""><tspan xml:space="preserve" dy="1em" x="0" class="row">Yes</tspan></text></g></g><g class="edgeLabel" transform="translate(703.66796875, 1371.28125)"><g class="label" transform="translate(-15.59375, -11.5)"><rect rx="0" ry="0" width="31.17238426208496" height="23.000375747680664"></rect><text style=""><tspan xml:space="preserve" dy="1em" x="0" class="row">Yes</tspan></text></g></g><g class="edgeLabel" transform="translate(570.26953125, 1371.28125)"><g class="label" transform="translate(-12.640625, -11.5)"><rect rx="0" ry="0" width="25.266036987304688" height="23.000375747680664"></rect><text style=""><tspan xml:space="preserve" dy="1em" x="0" class="row">No</tspan></text></g></g><g class="edgeLabel"><g class="label" transform="translate(0, 0)"><rect rx="0" ry="0" width="0" height="0"></rect><text style=""><tspan xml:space="preserve" dy="1em" x="0" class="row"></tspan></text></g></g><g class="edgeLabel" transform="translate(287.98046875, 1789.15625)"><g class="label" transform="translate(-12.640625, -11.5)"><rect rx="0" ry="0" width="25.266036987304688" height="23.000375747680664"></rect><text style=""><tspan xml:space="preserve" dy="1em" x="0" class="row">No</tspan></text></g></g><g class="edgeLabel" transform="translate(499.89453125, 1789.15625)"><g class="label" transform="translate(-15.59375, -11.5)"><rect rx="0" ry="0" width="31.17238426208496" height="23.000375747680664"></rect><text style=""><tspan xml:space="preserve" dy="1em" x="0" class="row">Yes</tspan></text></g></g></g><g class="nodes"><g class="node default default flowchart-label" id="flowchart-A-138" data-node="true" data-id="A" transform="translate(265.24609375, 19)"><rect style="" rx="19" ry="19" x="-102.2890625" y="-19" width="204.578125" height="38"></rect><g class="label" style="" transform="translate(0, -11.5)"><rect></rect><text style=""><tspan xml:space="preserve" dy="1em" x="0" class="row">Agent Receives Task</tspan></text></g></g><g class="node default default flowchart-label" id="flowchart-B-139" data-node="true" data-id="B" transform="translate(265.24609375, 205.0078125)"><polygon points="117.0078125,0 234.015625,-117.0078125 117.0078125,-234.015625 0,-117.0078125" class="label-container" transform="translate(-117.0078125,117.0078125)" style=""></polygon><g class="label" style="" transform="translate(0, -21.5)"><rect></rect><text style=""><tspan xml:space="preserve" dy="1em" x="0" class="row">Is action within</tspan><tspan xml:space="preserve" dy="1em" x="0" class="row">authorized scope?</tspan></text></g></g><g class="node default default flowchart-label" id="flowchart-C-141" data-node="true" data-id="C" transform="translate(138.1953125, 525.515625)"><rect class="basic label-container" style="" rx="0" ry="0" x="-73.6015625" y="-39" width="147.203125" height="78"></rect><g class="label" style="" transform="translate(0, -31.5)"><rect></rect><text style=""><tspan xml:space="preserve" dy="1em" x="0" class="row">Reject action</tspan><tspan xml:space="preserve" dy="1em" x="0" class="row">Log refusal</tspan><tspan xml:space="preserve" dy="1em" x="0" class="row">Notify operator</tspan></text></g></g><g class="node default default flowchart-label" id="flowchart-D-143" data-node="true" data-id="D" transform="translate(392.296875, 525.515625)"><polygon points="130.5,0 261,-130.5 130.5,-261 0,-130.5" class="label-container" transform="translate(-130.5,130.5)" style=""></polygon><g class="label" style="" transform="translate(0, -21.5)"><rect></rect><text style=""><tspan xml:space="preserve" dy="1em" x="0" class="row">Does action exceed</tspan><tspan xml:space="preserve" dy="1em" x="0" class="row">materiality threshold?</tspan></text></g></g><g class="node default default flowchart-label" id="flowchart-E-145" data-node="true" data-id="E" transform="translate(117.3203125, 844.90625)"><rect class="basic label-container" style="" rx="0" ry="0" x="-115.859375" y="-19" width="231.71875" height="38"></rect><g class="label" style="" transform="translate(0, -11.5)"><rect></rect><text style=""><tspan xml:space="preserve" dy="1em" x="0" class="row">Request human approval</tspan></text></g></g><g class="node default default flowchart-label" id="flowchart-F-147" data-node="true" data-id="F" transform="translate(117.3203125, 1184.2890625)"><polygon points="114.9296875,0 229.859375,-114.9296875 114.9296875,-229.859375 0,-114.9296875" class="label-container" transform="translate(-114.9296875,114.9296875)" style=""></polygon><g class="label" style="" transform="translate(0, -21.5)"><rect></rect><text style=""><tspan xml:space="preserve" dy="1em" x="0" class="row">Approval received</tspan><tspan xml:space="preserve" dy="1em" x="0" class="row">within timeout?</tspan></text></g></g><g class="node default default flowchart-label" id="flowchart-G-149" data-node="true" data-id="G" transform="translate(93.203125, 1446.78125)"><rect class="basic label-container" style="" rx="0" ry="0" x="-93.203125" y="-29" width="186.40625" height="58"></rect><g class="label" style="" transform="translate(0, -21.5)"><rect></rect><text style=""><tspan xml:space="preserve" dy="1em" x="0" class="row">Escalate to next tier</tspan><tspan xml:space="preserve" dy="1em" x="0" class="row">or abort task</tspan></text></g></g><g class="node default default flowchart-label" id="flowchart-H-151" data-node="true" data-id="H" transform="translate(393.9375, 1446.78125)"><rect class="basic label-container" style="" rx="0" ry="0" x="-78.640625" y="-29" width="157.28125" height="58"></rect><g class="label" style="" transform="translate(0, -21.5)"><rect></rect><text style=""><tspan xml:space="preserve" dy="1em" x="0" class="row">Execute with full</tspan><tspan xml:space="preserve" dy="1em" x="0" class="row">audit logging</tspan></text></g></g><g class="node default default flowchart-label" id="flowchart-I-153" data-node="true" data-id="I" transform="translate(533.171875, 844.90625)"><polygon points="115.890625,0 231.78125,-115.890625 115.890625,-231.78125 0,-115.890625" class="label-container" transform="translate(-115.890625,115.890625)" style=""></polygon><g class="label" style="" transform="translate(0, -21.5)"><rect></rect><text style=""><tspan xml:space="preserve" dy="1em" x="0" class="row">Confidence above</tspan><tspan xml:space="preserve" dy="1em" x="0" class="row">threshold?</tspan></text></g></g><g class="node default default flowchart-label" id="flowchart-J-155" data-node="true" data-id="J" transform="translate(386.79296875, 1184.2890625)"><rect class="basic label-container" style="" rx="0" ry="0" x="-92.265625" y="-29" width="184.53125" height="58"></rect><g class="label" style="" transform="translate(0, -21.5)"><rect></rect><text style=""><tspan xml:space="preserve" dy="1em" x="0" class="row">Escalate:</tspan><tspan xml:space="preserve" dy="1em" x="0" class="row">ambiguity detected</tspan></text></g></g><g class="node default default flowchart-label" id="flowchart-K-157" data-node="true" data-id="K" transform="translate(679.55078125, 1184.2890625)"><polygon points="150.4921875,0 300.984375,-150.4921875 150.4921875,-300.984375 0,-150.4921875" class="label-container" transform="translate(-150.4921875,150.4921875)" style=""></polygon><g class="label" style="" transform="translate(0, -21.5)"><rect></rect><text style=""><tspan xml:space="preserve" dy="1em" x="0" class="row">Prompt injection</tspan><tspan xml:space="preserve" dy="1em" x="0" class="row">or manipulation detected?</tspan></text></g></g><g class="node default default flowchart-label" id="flowchart-L-159" data-node="true" data-id="L" transform="translate(703.66796875, 1446.78125)"><rect class="basic label-container" style="" rx="0" ry="0" x="-89.921875" y="-39" width="179.84375" height="78"></rect><g class="label" style="" transform="translate(0, -31.5)"><rect></rect><text style=""><tspan xml:space="preserve" dy="1em" x="0" class="row">Halt execution</tspan><tspan xml:space="preserve" dy="1em" x="0" class="row">Alert security team</tspan><tspan xml:space="preserve" dy="1em" x="0" class="row">Log full context</tspan></text></g></g><g class="node default default flowchart-label" id="flowchart-M-163" data-node="true" data-id="M" transform="translate(393.9375, 1644.21875)"><polygon points="108.4375,0 216.875,-108.4375 108.4375,-216.875 0,-108.4375" class="label-container" transform="translate(-108.4375,108.4375)" style=""></polygon><g class="label" style="" transform="translate(0, -11.5)"><rect></rect><text style=""><tspan xml:space="preserve" dy="1em" x="0" class="row">Action successful?</tspan></text></g></g><g class="node default default flowchart-label" id="flowchart-N-165" data-node="true" data-id="N" transform="translate(287.98046875, 1864.65625)"><rect class="basic label-container" style="" rx="0" ry="0" x="-79.5625" y="-39" width="159.125" height="78"></rect><g class="label" style="" transform="translate(0, -31.5)"><rect></rect><text style=""><tspan xml:space="preserve" dy="1em" x="0" class="row">Log failure</tspan><tspan xml:space="preserve" dy="1em" x="0" class="row">Attempt rollback</tspan><tspan xml:space="preserve" dy="1em" x="0" class="row">Notify if needed</tspan></text></g></g><g class="node default default flowchart-label" id="flowchart-O-167" data-node="true" data-id="O" transform="translate(499.89453125, 1864.65625)"><rect style="" rx="29" ry="29" x="-82.3515625" y="-29" width="164.703125" height="58"></rect><g class="label" style="" transform="translate(0, -21.5)"><rect></rect><text style=""><tspan xml:space="preserve" dy="1em" x="0" class="row">Log completion</tspan><tspan xml:space="preserve" dy="1em" x="0" class="row">Continue task</tspan></text></g></g></g></g></g></svg>