<svg id="d1929822653" width="100%" xmlns="http://www.w3.org/2000/svg" style="max-width: 1309.2734375px;" viewBox="-8 -8 1309.2734375 467" role="graphics-document document" aria-roledescription="flowchart-v2"><style>#d1929822653{font-family:IBM Plex Sans,system-ui,sans-serif;font-size:20px;fill:#16130e;}#d1929822653 .error-icon{fill:#f5f1e8;}#d1929822653 .error-text{fill:#0a0e17;stroke:#0a0e17;}#d1929822653 .edge-thickness-normal{stroke-width:2px;}#d1929822653 .edge-thickness-thick{stroke-width:3.5px;}#d1929822653 .edge-pattern-solid{stroke-dasharray:0;}#d1929822653 .edge-pattern-dashed{stroke-dasharray:3;}#d1929822653 .edge-pattern-dotted{stroke-dasharray:2;}#d1929822653 .marker{fill:#6a6357;stroke:#6a6357;}#d1929822653 .marker.cross{stroke:#6a6357;}#d1929822653 svg{font-family:IBM Plex Sans,system-ui,sans-serif;font-size:20px;}#d1929822653 .label{font-family:IBM Plex Sans,system-ui,sans-serif;color:#16130e;}#d1929822653 .cluster-label text{fill:#16130e;}#d1929822653 .cluster-label span,#d1929822653 p{color:#16130e;}#d1929822653 .label text,#d1929822653 span,#d1929822653 p{fill:#16130e;color:#16130e;}#d1929822653 .node rect,#d1929822653 .node circle,#d1929822653 .node ellipse,#d1929822653 .node polygon,#d1929822653 .node path{fill:#fbf9f4;stroke:#7a5c1e;stroke-width:1px;}#d1929822653 .flowchart-label text{text-anchor:middle;}#d1929822653 .node .katex path{fill:#000;stroke:#000;stroke-width:1px;}#d1929822653 .node .label{text-align:center;}#d1929822653 .node.clickable{cursor:pointer;}#d1929822653 .arrowheadPath{fill:#0a0e17;}#d1929822653 .edgePath .path{stroke:#6a6357;stroke-width:2.0px;}#d1929822653 .flowchart-link{stroke:#6a6357;fill:none;}#d1929822653 .edgeLabel{background-color:#f5f1e8;text-align:center;}#d1929822653 .edgeLabel rect{opacity:0.5;background-color:#f5f1e8;fill:#f5f1e8;}#d1929822653 .labelBkg{background-color:rgba(245, 241, 232, 0.5);}#d1929822653 .cluster rect{fill:#ece6d8;stroke:#d9d2c3;stroke-width:1px;}#d1929822653 .cluster text{fill:#16130e;}#d1929822653 .cluster span,#d1929822653 p{color:#16130e;}#d1929822653 div.mermaidTooltip{position:absolute;text-align:center;max-width:200px;padding:2px;font-family:IBM Plex Sans,system-ui,sans-serif;font-size:12px;background:#f5f1e8;border:1px solid hsl(41.5384615385, 0%, 83.5294117647%);border-radius:2px;pointer-events:none;z-index:100;}#d1929822653 .flowchartTitleText{text-anchor:middle;font-size:18px;fill:#16130e;}#d1929822653 :root{--mermaid-font-family:"trebuchet ms",verdana,arial,sans-serif;}</style><g><marker id="d1929822653_flowchart-pointEnd" class="marker flowchart" viewBox="0 0 10 10" refX="6" refY="5" markerUnits="userSpaceOnUse" markerWidth="12" markerHeight="12" orient="auto"><path d="M 0 0 L 10 5 L 0 10 z" class="arrowMarkerPath" style="stroke-width: 1; stroke-dasharray: 1, 0;"></path></marker><marker id="d1929822653_flowchart-pointStart" class="marker flowchart" viewBox="0 0 10 10" refX="4.5" refY="5" markerUnits="userSpaceOnUse" markerWidth="12" markerHeight="12" orient="auto"><path d="M 0 5 L 10 10 L 10 0 z" class="arrowMarkerPath" style="stroke-width: 1; stroke-dasharray: 1, 0;"></path></marker><marker id="d1929822653_flowchart-circleEnd" class="marker flowchart" viewBox="0 0 10 10" refX="11" refY="5" markerUnits="userSpaceOnUse" markerWidth="11" markerHeight="11" orient="auto"><circle cx="5" cy="5" r="5" class="arrowMarkerPath" style="stroke-width: 1; stroke-dasharray: 1, 0;"></circle></marker><marker id="d1929822653_flowchart-circleStart" class="marker flowchart" viewBox="0 0 10 10" refX="-1" refY="5" markerUnits="userSpaceOnUse" markerWidth="11" markerHeight="11" orient="auto"><circle cx="5" cy="5" r="5" class="arrowMarkerPath" style="stroke-width: 1; stroke-dasharray: 1, 0;"></circle></marker><marker id="d1929822653_flowchart-crossEnd" class="marker cross flowchart" viewBox="0 0 11 11" refX="12" refY="5.2" markerUnits="userSpaceOnUse" markerWidth="11" markerHeight="11" orient="auto"><path d="M 1,1 l 9,9 M 10,1 l -9,9" class="arrowMarkerPath" style="stroke-width: 2; stroke-dasharray: 1, 0;"></path></marker><marker id="d1929822653_flowchart-crossStart" class="marker cross flowchart" viewBox="0 0 11 11" refX="-1" refY="5.2" markerUnits="userSpaceOnUse" markerWidth="11" markerHeight="11" orient="auto"><path d="M 1,1 l 9,9 M 10,1 l -9,9" class="arrowMarkerPath" style="stroke-width: 2; stroke-dasharray: 1, 0;"></path></marker><g class="root"><g class="clusters"></g><g class="edgePaths"><path d="M791.906,47.607L744.926,55.423C697.945,63.238,603.984,78.869,557.004,91.885C510.023,104.9,510.023,115.3,510.023,120.5L510.023,125.7" id="L-SOR-SOI-0" class="edge-thickness-normal edge-pattern-solid flowchart-link LS-SOR LE-SOI" style="fill:none;" marker-end="url(#d1929822653_flowchart-pointEnd)"></path><path d="M903.758,58L903.758,64.083C903.758,70.167,903.758,82.333,903.758,99.333C903.758,116.333,903.758,138.167,903.758,160C903.758,181.833,903.758,203.667,903.758,225.5C903.758,247.333,903.758,269.167,903.758,291C903.758,312.833,903.758,334.667,868.061,351.522C832.364,368.377,760.97,380.254,725.274,386.192L689.577,392.13" id="L-SOR-SOA-0" class="edge-thickness-normal edge-pattern-solid flowchart-link LS-SOR LE-SOA" style="fill:none;" marker-end="url(#d1929822653_flowchart-pointEnd)"></path><path d="M348.121,270.809L399.902,263.258C451.682,255.706,555.243,240.603,594.014,227.324C632.785,214.045,606.766,202.59,593.756,196.863L580.747,191.136" id="L-SOE-SOI-0" class="edge-thickness-normal edge-pattern-solid flowchart-link LS-SOE LE-SOI" style="fill:none;" marker-end="url(#d1929822653_flowchart-pointEnd)"></path><path d="M161.909,320L151.889,326.083C141.869,332.167,121.829,344.333,148.852,356.36C175.875,368.387,249.96,380.274,287.003,386.217L324.045,392.16" id="L-SOE-SOA-0" class="edge-thickness-normal edge-pattern-solid flowchart-link LS-SOE LE-SOA" style="fill:none;" marker-end="url(#d1929822653_flowchart-pointEnd)"></path><path d="M377.045,189L349.15,195.083C321.255,201.167,265.466,213.333,237.571,224.617C209.676,235.9,209.676,246.3,209.676,251.5L209.676,256.7" id="L-SOI-SOE-0" class="edge-thickness-normal edge-pattern-solid flowchart-link LS-SOI LE-SOE" style="fill:none;" marker-end="url(#d1929822653_flowchart-pointEnd)"></path><path d="M510.023,189L510.023,195.083C510.023,201.167,510.023,213.333,510.023,230.333C510.023,247.333,510.023,269.167,510.023,291C510.023,312.833,510.023,334.667,510.023,350.783C510.023,366.9,510.023,377.3,510.023,382.5L510.023,387.7" id="L-SOI-SOA-0" class="edge-thickness-normal edge-pattern-solid flowchart-link LS-SOI LE-SOA" style="fill:none;" marker-end="url(#d1929822653_flowchart-pointEnd)"></path><path d="M700.336,402.721L776.38,395.017C852.424,387.314,1004.513,371.907,1080.557,353.287C1156.602,334.667,1156.602,312.833,1156.602,291C1156.602,269.167,1156.602,247.333,1156.602,225.5C1156.602,203.667,1156.602,181.833,1156.602,160C1156.602,138.167,1156.602,116.333,1133.958,99.551C1111.314,82.768,1066.027,71.036,1043.384,65.171L1020.74,59.305" id="L-SOA-SOR-0" class="edge-thickness-normal edge-pattern-solid flowchart-link LS-SOA LE-SOR" style="fill:none;" marker-end="url(#d1929822653_flowchart-pointEnd)"></path><path d="M424.812,393L406.937,386.917C389.062,380.833,353.312,368.667,326.172,356.958C299.033,345.25,280.503,334,271.238,328.375L261.973,322.751" id="L-SOA-SOE-0" class="edge-thickness-normal edge-pattern-solid flowchart-link LS-SOA LE-SOE" style="fill:none;" marker-end="url(#d1929822653_flowchart-pointEnd)"></path></g><g class="edgeLabels"><g class="edgeLabel" transform="translate(510.0234375, 94.5)"><g class="label" transform="translate(-137.953125, -11.5)"><rect rx="0" ry="0" width="275.8147277832031" height="23.222139358520508"></rect><text style=""><tspan xml:space="preserve" dy="1em" x="0" class="row">structured data, master records</tspan></text></g></g><g class="edgeLabel" transform="translate(903.7578125, 225.5)"><g class="label" transform="translate(-96.171875, -11.5)"><rect rx="0" ry="0" width="192.27377319335938" height="23.222139358520508"></rect><text style=""><tspan xml:space="preserve" dy="1em" x="0" class="row">state reads and writes</tspan></text></g></g><g class="edgeLabel" transform="translate(658.8046875, 225.5)"><g class="label" transform="translate(-128.78125, -11.5)"><rect rx="0" ry="0" width="257.48236083984375" height="23.222139358520508"></rect><text style=""><tspan xml:space="preserve" dy="1em" x="0" class="row">user inputs, context, sessions</tspan></text></g></g><g class="edgeLabel" transform="translate(101.7890625, 356.5)"><g class="label" transform="translate(-101.7890625, -11.5)"><rect rx="0" ry="0" width="203.52200317382812" height="23.222139358520508"></rect><text style=""><tspan xml:space="preserve" dy="1em" x="0" class="row">task triggers, approvals</tspan></text></g></g><g class="edgeLabel" transform="translate(209.67578125, 225.5)"><g class="label" transform="translate(-116.265625, -11.5)"><rect rx="0" ry="0" width="232.4459991455078" height="23.222139358520508"></rect><text style=""><tspan xml:space="preserve" dy="1em" x="0" class="row">inferences, ranked outputs</tspan></text></g></g><g class="edgeLabel" transform="translate(510.0234375, 291)"><g class="label" transform="translate(-97.4921875, -11.5)"><rect rx="0" ry="0" width="194.91737365722656" height="23.222139358520508"></rect><text style=""><tspan xml:space="preserve" dy="1em" x="0" class="row">decisions, instructions</tspan></text></g></g><g class="edgeLabel" transform="translate(1156.6015625, 225.5)"><g class="label" transform="translate(-136.671875, -11.5)"><rect rx="0" ry="0" width="273.2575378417969" height="23.222139358520508"></rect><text style=""><tspan xml:space="preserve" dy="1em" x="0" class="row">state updates, completed tasks</tspan></text></g></g><g class="edgeLabel" transform="translate(317.5625, 356.5)"><g class="label" transform="translate(-93.984375, -11.5)"><rect rx="0" ry="0" width="187.90234375" height="23.222139358520508"></rect><text style=""><tspan xml:space="preserve" dy="1em" x="0" class="row">results, confirmations</tspan></text></g></g></g><g class="nodes"><g class="node default default flowchart-label" id="flowchart-SOR-84" data-node="true" data-id="SOR" transform="translate(903.7578125, 29)"><rect class="basic label-container" style="" rx="0" ry="0" x="-111.8515625" y="-29" width="223.703125" height="58"></rect><g class="label" style="" transform="translate(0, -21.5)"><rect></rect><text style=""><tspan xml:space="preserve" dy="1em" x="0" class="row">System of Record</tspan><tspan xml:space="preserve" dy="1em" x="0" class="row">ERP · CRM · HRIS · SCM</tspan></text></g></g><g class="node default default flowchart-label" id="flowchart-SOE-85" data-node="true" data-id="SOE" transform="translate(209.67578125, 291)"><rect class="basic label-container" style="" rx="0" ry="0" x="-138.4453125" y="-29" width="276.890625" height="58"></rect><g class="label" style="" transform="translate(0, -21.5)"><rect></rect><text style=""><tspan xml:space="preserve" dy="1em" x="0" class="row">System of Engagement</tspan><tspan xml:space="preserve" dy="1em" x="0" class="row">Portals · Apps · Copilots · APIs</tspan></text></g></g><g class="node default default flowchart-label" id="flowchart-SOI-86" data-node="true" data-id="SOI" transform="translate(510.0234375, 160)"><rect class="basic label-container" style="" rx="0" ry="0" x="-184.890625" y="-29" width="369.78125" height="58"></rect><g class="label" style="" transform="translate(0, -21.5)"><rect></rect><text style=""><tspan xml:space="preserve" dy="1em" x="0" class="row">System of Intelligence</tspan><tspan xml:space="preserve" dy="1em" x="0" class="row">Models · Embeddings · RAG · Knowledge</tspan></text></g></g><g class="node default default flowchart-label" id="flowchart-SOA-87" data-node="true" data-id="SOA" transform="translate(510.0234375, 422)"><rect class="basic label-container" style="" rx="0" ry="0" x="-190.3125" y="-29" width="380.625" height="58"></rect><g class="label" style="" transform="translate(0, -21.5)"><rect></rect><text style=""><tspan xml:space="preserve" dy="1em" x="0" class="row">System of Action</tspan><tspan xml:space="preserve" dy="1em" x="0" class="row">Orchestration · Agents · RPA · Integrations</tspan></text></g></g></g></g></g></svg>