<svg id="d1340268654" width="100%" xmlns="http://www.w3.org/2000/svg" style="max-width: 1106.26171875px;" viewBox="-8 -8 1106.26171875 729" role="graphics-document document" aria-roledescription="flowchart-v2"><style>#d1340268654{font-family:IBM Plex Sans,system-ui,sans-serif;font-size:20px;fill:#16130e;}#d1340268654 .error-icon{fill:#f5f1e8;}#d1340268654 .error-text{fill:#0a0e17;stroke:#0a0e17;}#d1340268654 .edge-thickness-normal{stroke-width:2px;}#d1340268654 .edge-thickness-thick{stroke-width:3.5px;}#d1340268654 .edge-pattern-solid{stroke-dasharray:0;}#d1340268654 .edge-pattern-dashed{stroke-dasharray:3;}#d1340268654 .edge-pattern-dotted{stroke-dasharray:2;}#d1340268654 .marker{fill:#6a6357;stroke:#6a6357;}#d1340268654 .marker.cross{stroke:#6a6357;}#d1340268654 svg{font-family:IBM Plex Sans,system-ui,sans-serif;font-size:20px;}#d1340268654 .label{font-family:IBM Plex Sans,system-ui,sans-serif;color:#16130e;}#d1340268654 .cluster-label text{fill:#16130e;}#d1340268654 .cluster-label span,#d1340268654 p{color:#16130e;}#d1340268654 .label text,#d1340268654 span,#d1340268654 p{fill:#16130e;color:#16130e;}#d1340268654 .node rect,#d1340268654 .node circle,#d1340268654 .node ellipse,#d1340268654 .node polygon,#d1340268654 .node path{fill:#fbf9f4;stroke:#7a5c1e;stroke-width:1px;}#d1340268654 .flowchart-label text{text-anchor:middle;}#d1340268654 .node .katex path{fill:#000;stroke:#000;stroke-width:1px;}#d1340268654 .node .label{text-align:center;}#d1340268654 .node.clickable{cursor:pointer;}#d1340268654 .arrowheadPath{fill:#0a0e17;}#d1340268654 .edgePath .path{stroke:#6a6357;stroke-width:2.0px;}#d1340268654 .flowchart-link{stroke:#6a6357;fill:none;}#d1340268654 .edgeLabel{background-color:#f5f1e8;text-align:center;}#d1340268654 .edgeLabel rect{opacity:0.5;background-color:#f5f1e8;fill:#f5f1e8;}#d1340268654 .labelBkg{background-color:rgba(245, 241, 232, 0.5);}#d1340268654 .cluster rect{fill:#ece6d8;stroke:#d9d2c3;stroke-width:1px;}#d1340268654 .cluster text{fill:#16130e;}#d1340268654 .cluster span,#d1340268654 p{color:#16130e;}#d1340268654 div.mermaidTooltip{position:absolute;text-align:center;max-width:200px;padding:2px;font-family:IBM Plex Sans,system-ui,sans-serif;font-size:12px;background:#f5f1e8;border:1px solid hsl(41.5384615385, 0%, 83.5294117647%);border-radius:2px;pointer-events:none;z-index:100;}#d1340268654 .flowchartTitleText{text-anchor:middle;font-size:18px;fill:#16130e;}#d1340268654 :root{--mermaid-font-family:"trebuchet ms",verdana,arial,sans-serif;}</style><g><marker id="d1340268654_flowchart-pointEnd" class="marker flowchart" viewBox="0 0 10 10" refX="6" refY="5" markerUnits="userSpaceOnUse" markerWidth="12" markerHeight="12" orient="auto"><path d="M 0 0 L 10 5 L 0 10 z" class="arrowMarkerPath" style="stroke-width: 1; stroke-dasharray: 1, 0;"></path></marker><marker id="d1340268654_flowchart-pointStart" class="marker flowchart" viewBox="0 0 10 10" refX="4.5" refY="5" markerUnits="userSpaceOnUse" markerWidth="12" markerHeight="12" orient="auto"><path d="M 0 5 L 10 10 L 10 0 z" class="arrowMarkerPath" style="stroke-width: 1; stroke-dasharray: 1, 0;"></path></marker><marker id="d1340268654_flowchart-circleEnd" class="marker flowchart" viewBox="0 0 10 10" refX="11" refY="5" markerUnits="userSpaceOnUse" markerWidth="11" markerHeight="11" orient="auto"><circle cx="5" cy="5" r="5" class="arrowMarkerPath" style="stroke-width: 1; stroke-dasharray: 1, 0;"></circle></marker><marker id="d1340268654_flowchart-circleStart" class="marker flowchart" viewBox="0 0 10 10" refX="-1" refY="5" markerUnits="userSpaceOnUse" markerWidth="11" markerHeight="11" orient="auto"><circle cx="5" cy="5" r="5" class="arrowMarkerPath" style="stroke-width: 1; stroke-dasharray: 1, 0;"></circle></marker><marker id="d1340268654_flowchart-crossEnd" class="marker cross flowchart" viewBox="0 0 11 11" refX="12" refY="5.2" markerUnits="userSpaceOnUse" markerWidth="11" markerHeight="11" orient="auto"><path d="M 1,1 l 9,9 M 10,1 l -9,9" class="arrowMarkerPath" style="stroke-width: 2; stroke-dasharray: 1, 0;"></path></marker><marker id="d1340268654_flowchart-crossStart" class="marker cross flowchart" viewBox="0 0 11 11" refX="-1" refY="5.2" markerUnits="userSpaceOnUse" markerWidth="11" markerHeight="11" orient="auto"><path d="M 1,1 l 9,9 M 10,1 l -9,9" class="arrowMarkerPath" style="stroke-width: 2; stroke-dasharray: 1, 0;"></path></marker><g class="root"><g class="clusters"><g class="cluster default flowchart-label" id="subGraph3"><rect style="" rx="0" ry="0" x="129.6015625" y="625" width="367.65625" height="88"></rect><g class="cluster-label" transform="translate(313.4296875, 625)"><text style=""><tspan xml:space="preserve" dy="1em" x="0" class="row">Infrastructure Layer</tspan></text></g></g><g class="cluster default flowchart-label" id="subGraph2"><rect style="" rx="0" ry="0" x="32.3828125" y="467" width="562.09375" height="108"></rect><g class="cluster-label" transform="translate(313.4296875, 467)"><text style=""><tspan xml:space="preserve" dy="1em" x="0" class="row">Resource Layer</tspan></text></g></g><g class="cluster default flowchart-label" id="subGraph1"><rect style="" rx="0" ry="0" x="0" y="221" width="626.859375" height="108"></rect><g class="cluster-label" transform="translate(313.4296875, 221)"><text style=""><tspan xml:space="preserve" dy="1em" x="0" class="row">Coordination Layer</tspan></text></g></g><g class="cluster default flowchart-label" id="subGraph0"><rect style="" rx="0" ry="0" x="646.859375" y="88" width="443.40234375" height="241"></rect><g class="cluster-label" transform="translate(868.560546875, 88)"><text style=""><tspan xml:space="preserve" dy="1em" x="0" class="row">Governance Layer</tspan></text></g></g></g><g class="edgePaths"><path d="M868.195,38L868.195,42.167C868.195,46.333,868.195,54.667,868.195,63C868.195,71.333,868.195,79.667,868.195,87.117C868.195,94.567,868.195,101.133,868.195,104.417L868.195,107.7" id="L-Human-AIP-0" class="edge-thickness-normal edge-pattern-solid flowchart-link LS-Human LE-AIP" style="fill:none;" marker-end="url(#d1340268654_flowchart-pointEnd)"></path><path d="M814.133,171L806.365,175.167C798.598,179.333,783.063,187.667,775.295,196C767.527,204.333,767.527,212.667,733.366,220.896C699.205,229.125,630.882,237.249,596.721,241.312L562.56,245.374" id="L-AIP-A2A-0" class="edge-thickness-normal edge-pattern-solid flowchart-link LS-AIP LE-A2A" style="fill:none;" marker-end="url(#d1340268654_flowchart-pointEnd)"></path><path d="M873.566,171L874.337,175.167C875.109,179.333,876.652,187.667,877.424,196C878.195,204.333,878.195,212.667,878.195,220.117C878.195,227.567,878.195,234.133,878.195,237.417L878.195,240.7" id="L-AIP-LDP-0" class="edge-thickness-normal edge-pattern-dotted flowchart-link LS-AIP LE-LDP" style="fill:none;stroke-width:2px;stroke-dasharray:3;" marker-end="url(#d1340268654_flowchart-pointEnd)"></path><path d="M248.704,304L239.404,308.167C230.105,312.333,211.506,320.667,202.206,329C192.906,337.333,192.906,345.667,192.906,353.117C192.906,360.567,192.906,367.133,192.906,370.417L192.906,373.7" id="L-A2A-Agent1-0" class="edge-thickness-normal edge-pattern-solid flowchart-link LS-A2A LE-Agent1" style="fill:none;" marker-end="url(#d1340268654_flowchart-pointEnd)"></path><path d="M383.526,304L393.597,308.167C403.668,312.333,423.811,320.667,433.882,329C443.953,337.333,443.953,345.667,443.953,353.117C443.953,360.567,443.953,367.133,443.953,370.417L443.953,373.7" id="L-A2A-Agent2-0" class="edge-thickness-normal edge-pattern-solid flowchart-link LS-A2A LE-Agent2" style="fill:none;" marker-end="url(#d1340268654_flowchart-pointEnd)"></path><path d="M192.906,417L192.906,421.167C192.906,425.333,192.906,433.667,192.906,442C192.906,450.333,192.906,458.667,201.4,466.639C209.893,474.611,226.88,482.222,235.374,486.027L243.867,489.833" id="L-Agent1-MCP-0" class="edge-thickness-normal edge-pattern-solid flowchart-link LS-Agent1 LE-MCP" style="fill:none;" marker-end="url(#d1340268654_flowchart-pointEnd)"></path><path d="M443.953,417L443.953,421.167C443.953,425.333,443.953,433.667,443.953,442C443.953,450.333,443.953,458.667,434.698,466.662C425.443,474.658,406.933,482.316,397.678,486.145L388.423,489.974" id="L-Agent2-MCP-0" class="edge-thickness-normal edge-pattern-solid flowchart-link LS-Agent2 LE-MCP" style="fill:none;" marker-end="url(#d1340268654_flowchart-pointEnd)"></path><path d="M313.43,550L313.43,554.167C313.43,558.333,313.43,566.667,313.43,575C313.43,583.333,313.43,591.667,313.43,600C313.43,608.333,313.43,616.667,313.43,624.117C313.43,631.567,313.43,638.133,313.43,641.417L313.43,644.7" id="L-MCP-Tools-0" class="edge-thickness-normal edge-pattern-solid flowchart-link LS-MCP LE-Tools" style="fill:none;" marker-end="url(#d1340268654_flowchart-pointEnd)"></path></g><g class="edgeLabels"><g class="edgeLabel"><g class="label" transform="translate(0, 0)"><rect rx="0" ry="0" width="0" height="0"></rect><text style=""><tspan xml:space="preserve" dy="1em" x="0" class="row"></tspan></text></g></g><g class="edgeLabel"><g class="label" transform="translate(0, 0)"><rect rx="0" ry="0" width="0" height="0"></rect><text style=""><tspan xml:space="preserve" dy="1em" x="0" class="row"></tspan></text></g></g><g class="edgeLabel"><g class="label" transform="translate(0, 0)"><rect rx="0" ry="0" width="0" height="0"></rect><text style=""><tspan xml:space="preserve" dy="1em" x="0" class="row"></tspan></text></g></g><g class="edgeLabel"><g class="label" transform="translate(0, 0)"><rect rx="0" ry="0" width="0" height="0"></rect><text style=""><tspan xml:space="preserve" dy="1em" x="0" class="row"></tspan></text></g></g><g class="edgeLabel"><g class="label" transform="translate(0, 0)"><rect rx="0" ry="0" width="0" height="0"></rect><text style=""><tspan xml:space="preserve" dy="1em" x="0" class="row"></tspan></text></g></g><g class="edgeLabel"><g class="label" transform="translate(0, 0)"><rect rx="0" ry="0" width="0" height="0"></rect><text style=""><tspan xml:space="preserve" dy="1em" x="0" class="row"></tspan></text></g></g><g class="edgeLabel"><g class="label" transform="translate(0, 0)"><rect rx="0" ry="0" width="0" height="0"></rect><text style=""><tspan xml:space="preserve" dy="1em" x="0" class="row"></tspan></text></g></g><g class="edgeLabel"><g class="label" transform="translate(0, 0)"><rect rx="0" ry="0" width="0" height="0"></rect><text style=""><tspan xml:space="preserve" dy="1em" x="0" class="row"></tspan></text></g></g></g><g class="nodes"><g class="node default default flowchart-label" id="flowchart-Tools-32" data-node="true" data-id="Tools" transform="translate(313.4296875, 669)"><rect class="basic label-container" style="" rx="0" ry="0" x="-148.828125" y="-19" width="297.65625" height="38"></rect><g class="label" style="" transform="translate(0, -11.5)"><rect></rect><text style=""><tspan xml:space="preserve" dy="1em" x="0" class="row">Tools, APIs, Databases, Services</tspan></text></g></g><g class="node default default flowchart-label" id="flowchart-MCP-31" data-node="true" data-id="MCP" transform="translate(313.4296875, 521)"><rect class="basic label-container" style="" rx="0" ry="0" x="-246.046875" y="-29" width="492.09375" height="58"></rect><g class="label" style="" transform="translate(0, -21.5)"><rect></rect><text style=""><tspan xml:space="preserve" dy="1em" x="0" class="row">MCP</tspan><tspan xml:space="preserve" dy="1em" x="0" class="row">Tool Access · Context Sharing · Resource Management</tspan></text></g></g><g class="node default default flowchart-label" id="flowchart-A2A-30" data-node="true" data-id="A2A" transform="translate(313.4296875, 275)"><rect class="basic label-container" style="" rx="0" ry="0" x="-278.4296875" y="-29" width="556.859375" height="58"></rect><g class="label" style="" transform="translate(0, -21.5)"><rect></rect><text style=""><tspan xml:space="preserve" dy="1em" x="0" class="row">A2A</tspan><tspan xml:space="preserve" dy="1em" x="0" class="row">Agent Communication · Task Delegation · Capability Discovery</tspan></text></g></g><g class="node default default flowchart-label" id="flowchart-AIP-28" data-node="true" data-id="AIP" transform="translate(868.1953125, 142)"><rect class="basic label-container" style="" rx="0" ry="0" x="-186.3359375" y="-29" width="372.671875" height="58"></rect><g class="label" style="" transform="translate(0, -21.5)"><rect></rect><text style=""><tspan xml:space="preserve" dy="1em" x="0" class="row">AIP</tspan><tspan xml:space="preserve" dy="1em" x="0" class="row">Identity · Delegation · Policy Enforcement</tspan></text></g></g><g class="node default default flowchart-label" id="flowchart-LDP-29" data-node="true" data-id="LDP" transform="translate(878.1953125, 275)"><rect class="basic label-container" style="" rx="0" ry="0" x="-167.796875" y="-29" width="335.59375" height="58"></rect><g class="label" style="" transform="translate(0, -21.5)"><rect></rect><text style=""><tspan xml:space="preserve" dy="1em" x="0" class="row">LDP</tspan><tspan xml:space="preserve" dy="1em" x="0" class="row">Provenance · Authorization Research</tspan></text></g></g><g class="node default default flowchart-label" id="flowchart-Human-33" data-node="true" data-id="Human" transform="translate(868.1953125, 19)"><rect class="basic label-container" style="" rx="0" ry="0" x="-102.1796875" y="-19" width="204.359375" height="38"></rect><g class="label" style="" transform="translate(0, -11.5)"><rect></rect><text style=""><tspan xml:space="preserve" dy="1em" x="0" class="row">Human / Orchestrator</tspan></text></g></g><g class="node default default flowchart-label" id="flowchart-Agent1-40" data-node="true" data-id="Agent1" transform="translate(192.90625, 398)"><rect class="basic label-container" style="" rx="0" ry="0" x="-85.875" y="-19" width="171.75" height="38"></rect><g class="label" style="" transform="translate(0, -11.5)"><rect></rect><text style=""><tspan xml:space="preserve" dy="1em" x="0" class="row">Specialized Agent</tspan></text></g></g><g class="node default default flowchart-label" id="flowchart-Agent2-42" data-node="true" data-id="Agent2" transform="translate(443.953125, 398)"><rect class="basic label-container" style="" rx="0" ry="0" x="-85.875" y="-19" width="171.75" height="38"></rect><g class="label" style="" transform="translate(0, -11.5)"><rect></rect><text style=""><tspan xml:space="preserve" dy="1em" x="0" class="row">Specialized Agent</tspan></text></g></g></g></g></g></svg>